<svg width="100%" height="100%" id="svg" viewBox="0 0 1440 600" xmlns="http://www.w3.org/2000/svg" class="transition duration-300 ease-in-out delay-150"><path d="M 0,600 C 0,600 0,150 0,150 C 97.46428571428572,161.42857142857144 194.92857142857144,172.85714285714286 310,187 C 425.07142857142856,201.14285714285714 557.7499999999999,218.00000000000003 680,203 C 802.2500000000001,187.99999999999997 914.0714285714287,141.14285714285714 1039,127 C 1163.9285714285713,112.85714285714286 1301.9642857142858,131.42857142857144 1440,150 C 1440,150 1440,600 1440,600 Z" stroke="none" stroke-width="0" fill="#52796f" fill-opacity="0.4" class="transition-all duration-300 ease-in-out delay-150 path-0"></path><path d="M 0,600 C 0,600 0,300 0,300 C 112.32142857142858,263.7857142857143 224.64285714285717,227.57142857142856 362,245 C 499.35714285714283,262.42857142857144 661.75,333.5 771,344 C 880.25,354.5 936.3571428571429,304.42857142857144 1039,287 C 1141.642857142857,269.57142857142856 1290.8214285714284,284.7857142857143 1440,300 C 1440,300 1440,600 1440,600 Z" stroke="none" stroke-width="0" fill="#52796f" fill-opacity="0.53" class="transition-all duration-300 ease-in-out delay-150 path-1"></path><path d="M 0,600 C 0,600 0,450 0,450 C 124.03571428571428,483 248.07142857142856,516 389,495 C 529.9285714285714,474 687.75,399.00000000000006 784,398 C 880.25,396.99999999999994 914.9285714285716,470 1014,491 C 1113.0714285714284,512 1276.5357142857142,481 1440,450 C 1440,450 1440,600 1440,600 Z" stroke="none" stroke-width="0" fill="#52796f" fill-opacity="1" class="transition-all duration-300 ease-in-out delay-150 path-2"></path></svg>